ISO-10303-21;
HEADER;
FILE_DESCRIPTION(('Open CASCADE Model'),'2;1');
FILE_NAME('Open CASCADE Shape Model','2026-07-28T23:31:17',('Author'),(
    'Open CASCADE'),'Open CASCADE STEP processor 7.9','Open CASCADE 7.9'
  ,'Unknown');
FILE_SCHEMA(('AUTOMOTIVE_DESIGN { 1 0 10303 214 1 1 1 1 }'));
ENDSEC;
DATA;
#1 = APPLICATION_PROTOCOL_DEFINITION('international standard',
  'automotive_design',2000,#2);
#2 = APPLICATION_CONTEXT(
  'core data for automotive mechanical design processes');
#3 = SHAPE_DEFINITION_REPRESENTATION(#4,#10);
#4 = PRODUCT_DEFINITION_SHAPE('','',#5);
#5 = PRODUCT_DEFINITION('design','',#6,#9);
#6 = PRODUCT_DEFINITION_FORMATION('','',#7);
#7 = PRODUCT('Open CASCADE STEP translator 7.9 3',
  'Open CASCADE STEP translator 7.9 3','',(#8));
#8 = PRODUCT_CONTEXT('',#2,'mechanical');
#9 = PRODUCT_DEFINITION_CONTEXT('part definition',#2,'design');
#10 = ADVANCED_BREP_SHAPE_REPRESENTATION('',(#11,#15),#863);
#11 = AXIS2_PLACEMENT_3D('',#12,#13,#14);
#12 = CARTESIAN_POINT('',(0.,0.,0.));
#13 = DIRECTION('',(0.,0.,1.));
#14 = DIRECTION('',(1.,0.,-0.));
#15 = MANIFOLD_SOLID_BREP('',#16);
#16 = CLOSED_SHELL('',(#17,#336,#511,#563,#702,#747,#772,#799,#826,#856)
  );
#17 = ADVANCED_FACE('',(#18),#31,.T.);
#18 = FACE_BOUND('',#19,.F.);
#19 = EDGE_LOOP('',(#20,#54,#77,#138,#194,#217,#244,#245,#335));
#20 = ORIENTED_EDGE('',*,*,#21,.F.);
#21 = EDGE_CURVE('',#22,#22,#24,.T.);
#22 = VERTEX_POINT('',#23);
#23 = CARTESIAN_POINT('',(6.,0.,0.));
#24 = SURFACE_CURVE('',#25,(#30,#42),.PCURVE_S1.);
#25 = CIRCLE('',#26,6.);
#26 = AXIS2_PLACEMENT_3D('',#27,#28,#29);
#27 = CARTESIAN_POINT('',(0.,0.,0.));
#28 = DIRECTION('',(0.,0.,1.));
#29 = DIRECTION('',(1.,0.,0.));
#30 = PCURVE('',#31,#36);
#31 = CYLINDRICAL_SURFACE('',#32,6.);
#32 = AXIS2_PLACEMENT_3D('',#33,#34,#35);
#33 = CARTESIAN_POINT('',(0.,0.,0.));
#34 = DIRECTION('',(-0.,-0.,-1.));
#35 = DIRECTION('',(1.,0.,0.));
#36 = DEFINITIONAL_REPRESENTATION('',(#37),#41);
#37 = LINE('',#38,#39);
#38 = CARTESIAN_POINT('',(-0.,0.));
#39 = VECTOR('',#40,1.);
#40 = DIRECTION('',(-1.,0.));
#41 = ( GEOMETRIC_REPRESENTATION_CONTEXT(2) 
PARAMETRIC_REPRESENTATION_CONTEXT() REPRESENTATION_CONTEXT('2D SPACE',''
  ) );
#42 = PCURVE('',#43,#48);
#43 = PLANE('',#44);
#44 = AXIS2_PLACEMENT_3D('',#45,#46,#47);
#45 = CARTESIAN_POINT('',(-4.558133775131E-16,-1.70226710729E-17,0.));
#46 = DIRECTION('',(0.,0.,1.));
#47 = DIRECTION('',(1.,0.,-0.));
#48 = DEFINITIONAL_REPRESENTATION('',(#49),#53);
#49 = CIRCLE('',#50,6.);
#50 = AXIS2_PLACEMENT_2D('',#51,#52);
#51 = CARTESIAN_POINT('',(4.558133775131E-16,1.70226710729E-17));
#52 = DIRECTION('',(1.,0.));
#53 = ( GEOMETRIC_REPRESENTATION_CONTEXT(2) 
PARAMETRIC_REPRESENTATION_CONTEXT() REPRESENTATION_CONTEXT('2D SPACE',''
  ) );
#54 = ORIENTED_EDGE('',*,*,#55,.T.);
#55 = EDGE_CURVE('',#22,#56,#58,.T.);
#56 = VERTEX_POINT('',#57);
#57 = CARTESIAN_POINT('',(6.,0.,1.));
#58 = SEAM_CURVE('',#59,(#63,#70),.PCURVE_S1.);
#59 = LINE('',#60,#61);
#60 = CARTESIAN_POINT('',(6.,0.,0.));
#61 = VECTOR('',#62,1.);
#62 = DIRECTION('',(0.,0.,1.));
#63 = PCURVE('',#31,#64);
#64 = DEFINITIONAL_REPRESENTATION('',(#65),#69);
#65 = LINE('',#66,#67);
#66 = CARTESIAN_POINT('',(-6.28318530718,0.));
#67 = VECTOR('',#68,1.);
#68 = DIRECTION('',(-0.,-1.));
#69 = ( GEOMETRIC_REPRESENTATION_CONTEXT(2) 
PARAMETRIC_REPRESENTATION_CONTEXT() REPRESENTATION_CONTEXT('2D SPACE',''
  ) );
#70 = PCURVE('',#31,#71);
#71 = DEFINITIONAL_REPRESENTATION('',(#72),#76);
#72 = LINE('',#73,#74);
#73 = CARTESIAN_POINT('',(-0.,0.));
#74 = VECTOR('',#75,1.);
#75 = DIRECTION('',(-0.,-1.));
#76 = ( GEOMETRIC_REPRESENTATION_CONTEXT(2) 
PARAMETRIC_REPRESENTATION_CONTEXT() REPRESENTATION_CONTEXT('2D SPACE',''
  ) );
#77 = ORIENTED_EDGE('',*,*,#78,.T.);
#78 = EDGE_CURVE('',#56,#79,#81,.T.);
#79 = VERTEX_POINT('',#80);
#80 = CARTESIAN_POINT('',(5.809475019311,1.5,2.5));
#81 = SURFACE_CURVE('',#82,(#97,#115),.PCURVE_S1.);
#82 = B_SPLINE_CURVE_WITH_KNOTS('',7,(#83,#84,#85,#86,#87,#88,#89,#90,
    #91,#92,#93,#94,#95,#96),.UNSPECIFIED.,.F.,.F.,(8,6,8),(0.,
    0.457727578705,1.),.UNSPECIFIED.);
#83 = CARTESIAN_POINT('',(6.,-1.377727649041E-16,1.));
#84 = CARTESIAN_POINT('',(6.,0.180717947276,1.));
#85 = CARTESIAN_POINT('',(5.993649412119,0.35791705466,1.025401275118));
#86 = CARTESIAN_POINT('',(5.981395063578,0.527244879079,1.074424289195)
  );
#87 = CARTESIAN_POINT('',(5.964538454495,0.684847605923,1.144376595025)
  );
#88 = CARTESIAN_POINT('',(5.945015543202,0.82754609735,1.231669143433));
#89 = CARTESIAN_POINT('',(5.924821581101,0.953115041575,1.331794698015)
  );
#90 = CARTESIAN_POINT('',(5.882622516656,1.188069488736,1.566749145176)
  );
#91 = CARTESIAN_POINT('',(5.860432248583,1.29318783786,1.707577960683));
#92 = CARTESIAN_POINT('',(5.840896414937,1.376406433363,1.857746440262)
  );
#93 = CARTESIAN_POINT('',(5.825401832888,1.438316239143,2.014270042369)
  );
#94 = CARTESIAN_POINT('',(5.814789557047,1.479416751071,2.17479132841));
#95 = CARTESIAN_POINT('',(5.809475019311,1.5,2.33732048914));
#96 = CARTESIAN_POINT('',(5.809475019311,1.5,2.5));
#97 = PCURVE('',#31,#98);
#98 = DEFINITIONAL_REPRESENTATION('',(#99),#114);
#99 = B_SPLINE_CURVE_WITH_KNOTS('',7,(#100,#101,#102,#103,#104,#105,#106
    ,#107,#108,#109,#110,#111,#112,#113),.UNSPECIFIED.,.F.,.F.,(8,6,8),(
    0.,0.457727578705,1.),.UNSPECIFIED.);
#100 = CARTESIAN_POINT('',(0.,-1.));
#101 = CARTESIAN_POINT('',(-3.011965787929E-02,-1.));
#102 = CARTESIAN_POINT('',(-5.965287858306E-02,-1.025401275118));
#103 = CARTESIAN_POINT('',(-8.791861736866E-02,-1.074424289195));
#104 = CARTESIAN_POINT('',(-0.114312353763,-1.144376595025));
#105 = CARTESIAN_POINT('',(-0.138306108874,-1.231669143433));
#106 = CARTESIAN_POINT('',(-0.159499607253,-1.331794698015));
#107 = CARTESIAN_POINT('',(-0.199285266758,-1.566749145176));
#108 = CARTESIAN_POINT('',(-0.217182856498,-1.707577960683));
#109 = CARTESIAN_POINT('',(-0.231426192392,-1.857746440262));
#110 = CARTESIAN_POINT('',(-0.242062472416,-2.014270042369));
#111 = CARTESIAN_POINT('',(-0.249137206122,-2.17479132841));
#112 = CARTESIAN_POINT('',(-0.252680255142,-2.33732048914));
#113 = CARTESIAN_POINT('',(-0.252680255142,-2.5));
#114 = ( GEOMETRIC_REPRESENTATION_CONTEXT(2) 
PARAMETRIC_REPRESENTATION_CONTEXT() REPRESENTATION_CONTEXT('2D SPACE',''
  ) );
#115 = PCURVE('',#116,#121);
#116 = CYLINDRICAL_SURFACE('',#117,1.5);
#117 = AXIS2_PLACEMENT_3D('',#118,#119,#120);
#118 = CARTESIAN_POINT('',(0.,0.,2.5));
#119 = DIRECTION('',(-1.,-0.,-0.));
#120 = DIRECTION('',(0.,1.,0.));
#121 = DEFINITIONAL_REPRESENTATION('',(#122),#137);
#122 = B_SPLINE_CURVE_WITH_KNOTS('',7,(#123,#124,#125,#126,#127,#128,
    #129,#130,#131,#132,#133,#134,#135,#136),.UNSPECIFIED.,.F.,.F.,(8,6,
    8),(0.,0.457727578705,1.),.UNSPECIFIED.);
#123 = CARTESIAN_POINT('',(-4.712388980385,-6.));
#124 = CARTESIAN_POINT('',(-4.832867611902,-6.));
#125 = CARTESIAN_POINT('',(-4.951000253021,-5.993649412119));
#126 = CARTESIAN_POINT('',(-5.066742218169,-5.981395063578));
#127 = CARTESIAN_POINT('',(-5.179878243462,-5.964538454495));
#128 = CARTESIAN_POINT('',(-5.289999134233,-5.945015543202));
#129 = CARTESIAN_POINT('',(-5.396392622647,-5.924821581101));
#130 = CARTESIAN_POINT('',(-5.61790979979,-5.882622516656));
#131 = CARTESIAN_POINT('',(-5.733850560324,-5.860432248583));
#132 = CARTESIAN_POINT('',(-5.84670029375,-5.840896414937));
#133 = CARTESIAN_POINT('',(-5.957281163721,-5.825401832888));
#134 = CARTESIAN_POINT('',(-6.066379712568,-5.814789557047));
#135 = CARTESIAN_POINT('',(-6.17473229994,-5.809475019311));
#136 = CARTESIAN_POINT('',(-6.28318530718,-5.809475019311));
#137 = ( GEOMETRIC_REPRESENTATION_CONTEXT(2) 
PARAMETRIC_REPRESENTATION_CONTEXT() REPRESENTATION_CONTEXT('2D SPACE',''
  ) );
#138 = ORIENTED_EDGE('',*,*,#139,.T.);
#139 = EDGE_CURVE('',#79,#140,#142,.T.);
#140 = VERTEX_POINT('',#141);
#141 = CARTESIAN_POINT('',(6.,0.,4.));
#142 = SURFACE_CURVE('',#143,(#158,#176),.PCURVE_S1.);
#143 = B_SPLINE_CURVE_WITH_KNOTS('',7,(#144,#145,#146,#147,#148,#149,
    #150,#151,#152,#153,#154,#155,#156,#157),.UNSPECIFIED.,.F.,.F.,(8,6,
    8),(0.,0.522546473297,1.),.UNSPECIFIED.);
#144 = CARTESIAN_POINT('',(5.809475019311,1.5,2.5));
#145 = CARTESIAN_POINT('',(5.809475019311,1.5,2.656575438347));
#146 = CARTESIAN_POINT('',(5.814398243511,1.48093235806,2.813021147608)
  );
#147 = CARTESIAN_POINT('',(5.824230623434,1.442852093828,2.967668805178)
  );
#148 = CARTESIAN_POINT('',(5.838614320253,1.385514606725,3.118744284457)
  );
#149 = CARTESIAN_POINT('',(5.85682607247,1.308492474503,3.264172315));
#150 = CARTESIAN_POINT('',(5.877685469345,1.211268265623,3.401360081178)
  );
#151 = CARTESIAN_POINT('',(5.919474291417,0.985804444679,3.64145466439)
  );
#152 = CARTESIAN_POINT('',(5.940706480235,0.858459278731,3.748967004707)
  );
#153 = CARTESIAN_POINT('',(5.961551974151,0.712181864161,3.843205403767)
  );
#154 = CARTESIAN_POINT('',(5.979758119267,0.549326217319,3.919026573204)
  );
#155 = CARTESIAN_POINT('',(5.993080366029,0.373381784304,3.972322761664)
  );
#156 = CARTESIAN_POINT('',(6.,0.188640536574,4.));
#157 = CARTESIAN_POINT('',(6.,2.296212748401E-16,4.));
#158 = PCURVE('',#31,#159);
#159 = DEFINITIONAL_REPRESENTATION('',(#160),#175);
#160 = B_SPLINE_CURVE_WITH_KNOTS('',7,(#161,#162,#163,#164,#165,#166,
    #167,#168,#169,#170,#171,#172,#173,#174),.UNSPECIFIED.,.F.,.F.,(8,6,
    8),(0.,0.522546473297,1.),.UNSPECIFIED.);
#161 = CARTESIAN_POINT('',(-0.252680255142,-2.5));
#162 = CARTESIAN_POINT('',(-0.252680255142,-2.656575438347));
#163 = CARTESIAN_POINT('',(-0.24939809212,-2.813021147608));
#164 = CARTESIAN_POINT('',(-0.242843238569,-2.967668805178));
#165 = CARTESIAN_POINT('',(-0.23299111296,-3.118744284457));
#166 = CARTESIAN_POINT('',(-0.219802884177,-3.264172315));
#167 = CARTESIAN_POINT('',(-0.203236632521,-3.401360081178));
#168 = CARTESIAN_POINT('',(-0.165019329791,-3.64145466439));
#169 = CARTESIAN_POINT('',(-0.143505706733,-3.748967004707));
#170 = CARTESIAN_POINT('',(-0.118891094331,-3.843205403767));
#171 = CARTESIAN_POINT('',(-9.160492571347E-02,-3.919026573204));
#172 = CARTESIAN_POINT('',(-6.223034061986E-02,-3.972322761664));
#173 = CARTESIAN_POINT('',(-3.144008942904E-02,-4.));
#174 = CARTESIAN_POINT('',(0.,-4.));
#175 = ( GEOMETRIC_REPRESENTATION_CONTEXT(2) 
PARAMETRIC_REPRESENTATION_CONTEXT() REPRESENTATION_CONTEXT('2D SPACE',''
  ) );
#176 = PCURVE('',#116,#177);
#177 = DEFINITIONAL_REPRESENTATION('',(#178),#193);
#178 = B_SPLINE_CURVE_WITH_KNOTS('',7,(#179,#180,#181,#182,#183,#184,
    #185,#186,#187,#188,#189,#190,#191,#192),.UNSPECIFIED.,.F.,.F.,(8,6,
    8),(0.,0.522546473297,1.),.UNSPECIFIED.);
#179 = CARTESIAN_POINT('',(0.,-5.809475019311));
#180 = CARTESIAN_POINT('',(-0.104383625565,-5.809475019311));
#181 = CARTESIAN_POINT('',(-0.208680633594,-5.814398243511));
#182 = CARTESIAN_POINT('',(-0.313637347268,-5.824230623434));
#183 = CARTESIAN_POINT('',(-0.419912482141,-5.838614320253));
#184 = CARTESIAN_POINT('',(-0.528204065853,-5.85682607247));
#185 = CARTESIAN_POINT('',(-0.639244260497,-5.877685469345));
#186 = CARTESIAN_POINT('',(-0.85881894376,-5.919474291417));
#187 = CARTESIAN_POINT('',(-0.96918364351,-5.940706480235));
#188 = CARTESIAN_POINT('',(-1.083618635022,-5.961551974151));
#189 = CARTESIAN_POINT('',(-1.201329766226,-5.979758119267));
#190 = CARTESIAN_POINT('',(-1.321875245648,-5.993080366029));
#191 = CARTESIAN_POINT('',(-1.445035969079,-6.));
#192 = CARTESIAN_POINT('',(-1.570796326795,-6.));
#193 = ( GEOMETRIC_REPRESENTATION_CONTEXT(2) 
PARAMETRIC_REPRESENTATION_CONTEXT() REPRESENTATION_CONTEXT('2D SPACE',''
  ) );
#194 = ORIENTED_EDGE('',*,*,#195,.T.);
#195 = EDGE_CURVE('',#140,#196,#198,.T.);
#196 = VERTEX_POINT('',#197);
#197 = CARTESIAN_POINT('',(6.,0.,5.));
#198 = SEAM_CURVE('',#199,(#203,#210),.PCURVE_S1.);
#199 = LINE('',#200,#201);
#200 = CARTESIAN_POINT('',(6.,0.,0.));
#201 = VECTOR('',#202,1.);
#202 = DIRECTION('',(0.,0.,1.));
#203 = PCURVE('',#31,#204);
#204 = DEFINITIONAL_REPRESENTATION('',(#205),#209);
#205 = LINE('',#206,#207);
#206 = CARTESIAN_POINT('',(-6.28318530718,0.));
#207 = VECTOR('',#208,1.);
#208 = DIRECTION('',(-0.,-1.));
#209 = ( GEOMETRIC_REPRESENTATION_CONTEXT(2) 
PARAMETRIC_REPRESENTATION_CONTEXT() REPRESENTATION_CONTEXT('2D SPACE',''
  ) );
#210 = PCURVE('',#31,#211);
#211 = DEFINITIONAL_REPRESENTATION('',(#212),#216);
#212 = LINE('',#213,#214);
#213 = CARTESIAN_POINT('',(-0.,0.));
#214 = VECTOR('',#215,1.);
#215 = DIRECTION('',(-0.,-1.));
#216 = ( GEOMETRIC_REPRESENTATION_CONTEXT(2) 
PARAMETRIC_REPRESENTATION_CONTEXT() REPRESENTATION_CONTEXT('2D SPACE',''
  ) );
#217 = ORIENTED_EDGE('',*,*,#218,.T.);
#218 = EDGE_CURVE('',#196,#196,#219,.T.);
#219 = SURFACE_CURVE('',#220,(#225,#232),.PCURVE_S1.);
#220 = CIRCLE('',#221,6.);
#221 = AXIS2_PLACEMENT_3D('',#222,#223,#224);
#222 = CARTESIAN_POINT('',(0.,0.,5.));
#223 = DIRECTION('',(0.,0.,1.));
#224 = DIRECTION('',(1.,0.,0.));
#225 = PCURVE('',#31,#226);
#226 = DEFINITIONAL_REPRESENTATION('',(#227),#231);
#227 = LINE('',#228,#229);
#228 = CARTESIAN_POINT('',(-0.,-5.));
#229 = VECTOR('',#230,1.);
#230 = DIRECTION('',(-1.,0.));
#231 = ( GEOMETRIC_REPRESENTATION_CONTEXT(2) 
PARAMETRIC_REPRESENTATION_CONTEXT() REPRESENTATION_CONTEXT('2D SPACE',''
  ) );
#232 = PCURVE('',#233,#238);
#233 = PLANE('',#234);
#234 = AXIS2_PLACEMENT_3D('',#235,#236,#237);
#235 = CARTESIAN_POINT('',(-4.558133775131E-16,-1.70226710729E-17,5.));
#236 = DIRECTION('',(0.,0.,1.));
#237 = DIRECTION('',(1.,0.,-0.));
#238 = DEFINITIONAL_REPRESENTATION('',(#239),#243);
#239 = CIRCLE('',#240,6.);
#240 = AXIS2_PLACEMENT_2D('',#241,#242);
#241 = CARTESIAN_POINT('',(4.558133775131E-16,1.70226710729E-17));
#242 = DIRECTION('',(1.,0.));
#243 = ( GEOMETRIC_REPRESENTATION_CONTEXT(2) 
PARAMETRIC_REPRESENTATION_CONTEXT() REPRESENTATION_CONTEXT('2D SPACE',''
  ) );
#244 = ORIENTED_EDGE('',*,*,#195,.F.);
#245 = ORIENTED_EDGE('',*,*,#246,.T.);
#246 = EDGE_CURVE('',#140,#56,#247,.T.);
#247 = SURFACE_CURVE('',#248,(#275,#305),.PCURVE_S1.);
#248 = B_SPLINE_CURVE_WITH_KNOTS('',7,(#249,#250,#251,#252,#253,#254,
    #255,#256,#257,#258,#259,#260,#261,#262,#263,#264,#265,#266,#267,
    #268,#269,#270,#271,#272,#273,#274),.UNSPECIFIED.,.F.,.F.,(8,6,6,6,8
    ),(0.,0.238887490675,0.500039688197,0.761192872786,1.),
  .UNSPECIFIED.);
#249 = CARTESIAN_POINT('',(6.,-4.440892098501E-16,4.));
#250 = CARTESIAN_POINT('',(6.,-0.188896603199,4.));
#251 = CARTESIAN_POINT('',(5.993061542833,-0.373668240223,3.972247593864
    ));
#252 = CARTESIAN_POINT('',(5.97973228324,-0.549492899543,3.918923097816)
  );
#253 = CARTESIAN_POINT('',(5.961544072407,-0.712182903775,3.843157271212
    ));
#254 = CARTESIAN_POINT('',(5.940722621126,-0.85834385615,3.749027225105)
  );
#255 = CARTESIAN_POINT('',(5.919496509751,-0.985684569787,3.641582318184
    ));
#256 = CARTESIAN_POINT('',(5.877685981599,-1.211265501851,3.401363024296
    ));
#257 = CARTESIAN_POINT('',(5.856826182173,-1.308492594366,3.264173769048
    ));
#258 = CARTESIAN_POINT('',(5.838613879651,-1.385516314218,3.118742119678
    ));
#259 = CARTESIAN_POINT('',(5.824230315487,-1.442853291361,2.967664862002
    ));
#260 = CARTESIAN_POINT('',(5.814398209223,-1.480932491431,2.813018268391
    ));
#261 = CARTESIAN_POINT('',(5.809475019311,-1.5,2.656574846546));
#262 = CARTESIAN_POINT('',(5.809475019311,-1.5,2.343424561653));
#263 = CARTESIAN_POINT('',(5.814398243511,-1.48093235806,2.186978852392)
  );
#264 = CARTESIAN_POINT('',(5.824230623434,-1.442852093828,2.032331194821
    ));
#265 = CARTESIAN_POINT('',(5.838614320253,-1.385514606725,1.881255715543
    ));
#266 = CARTESIAN_POINT('',(5.85682607247,-1.308492474503,1.735827685));
#267 = CARTESIAN_POINT('',(5.877685469345,-1.211268265623,1.598639918822
    ));
#268 = CARTESIAN_POINT('',(5.919490183158,-0.985718703743,1.358454030788
    ));
#269 = CARTESIAN_POINT('',(5.94071845734,-0.858374417046,1.250987460699)
  );
#270 = CARTESIAN_POINT('',(5.961547011699,-0.712177838767,1.156826135449
    ));
#271 = CARTESIAN_POINT('',(5.979740026563,-0.549440452121,1.081046003762
    ));
#272 = CARTESIAN_POINT('',(5.993066898257,-0.373583885195,1.027730968574
    ));
#273 = CARTESIAN_POINT('',(6.,-0.188823645392,1.));
#274 = CARTESIAN_POINT('',(6.,-8.881784197001E-16,1.));
#275 = PCURVE('',#31,#276);
#276 = DEFINITIONAL_REPRESENTATION('',(#277),#304);
#277 = B_SPLINE_CURVE_WITH_KNOTS('',7,(#278,#279,#280,#281,#282,#283,
    #284,#285,#286,#287,#288,#289,#290,#291,#292,#293,#294,#295,#296,
    #297,#298,#299,#300,#301,#302,#303),.UNSPECIFIED.,.F.,.F.,(8,6,6,6,8
    ),(0.,0.238887490675,0.500039688197,0.761192872786,1.),
  .UNSPECIFIED.);
#278 = CARTESIAN_POINT('',(-6.28318530718,-4.));
#279 = CARTESIAN_POINT('',(-6.25170253998,-4.));
#280 = CARTESIAN_POINT('',(-6.220907221787,-3.972247593864));
#281 = CARTESIAN_POINT('',(-6.191552389565,-3.918923097816));
#282 = CARTESIAN_POINT('',(-6.164293814155,-3.843157271212));
#283 = CARTESIAN_POINT('',(-6.139699011326,-3.749027225105));
#284 = CARTESIAN_POINT('',(-6.118186296812,-3.641582318184));
#285 = CARTESIAN_POINT('',(-6.079949143133,-3.401363024296));
#286 = CARTESIAN_POINT('',(-6.063382406858,-3.264173769048));
#287 = CARTESIAN_POINT('',(-6.050193901186,-3.118742119678));
#288 = CARTESIAN_POINT('',(-6.040341862177,-2.967664862001));
#289 = CARTESIAN_POINT('',(-6.033787192167,-2.813018268392));
#290 = CARTESIAN_POINT('',(-6.030505052038,-2.656574846546));
#291 = CARTESIAN_POINT('',(-6.030505052038,-2.343424561653));
#292 = CARTESIAN_POINT('',(-6.033787215059,-2.186978852392));
#293 = CARTESIAN_POINT('',(-6.040342068611,-2.032331194821));
#294 = CARTESIAN_POINT('',(-6.050194194219,-1.881255715543));
#295 = CARTESIAN_POINT('',(-6.063382423003,-1.735827685));
#296 = CARTESIAN_POINT('',(-6.079948674659,-1.598639918822));
#297 = CARTESIAN_POINT('',(-6.118180510927,-1.358454030788));
#298 = CARTESIAN_POINT('',(-6.139693875784,-1.250987460699));
#299 = CARTESIAN_POINT('',(-6.164294727889,-1.156826135448));
#300 = CARTESIAN_POINT('',(-6.191561193702,-1.081046003762));
#301 = CARTESIAN_POINT('',(-6.220921280121,-1.027730968574));
#302 = CARTESIAN_POINT('',(-6.251714699614,-1.));
#303 = CARTESIAN_POINT('',(-6.28318530718,-1.));
#304 = ( GEOMETRIC_REPRESENTATION_CONTEXT(2) 
PARAMETRIC_REPRESENTATION_CONTEXT() REPRESENTATION_CONTEXT('2D SPACE',''
  ) );
#305 = PCURVE('',#116,#306);
#306 = DEFINITIONAL_REPRESENTATION('',(#307),#334);
#307 = B_SPLINE_CURVE_WITH_KNOTS('',7,(#308,#309,#310,#311,#312,#313,
    #314,#315,#316,#317,#318,#319,#320,#321,#322,#323,#324,#325,#326,
    #327,#328,#329,#330,#331,#332,#333),.UNSPECIFIED.,.F.,.F.,(8,6,6,6,8
    ),(0.,0.238887490675,0.500039688197,0.761192872786,1.),
  .UNSPECIFIED.);
#308 = CARTESIAN_POINT('',(-1.570796326795,-6.));
#309 = CARTESIAN_POINT('',(-1.696727395594,-6.));
#310 = CARTESIAN_POINT('',(-1.819908399787,-5.993061542833));
#311 = CARTESIAN_POINT('',(-1.940387113473,-5.97973228324));
#312 = CARTESIAN_POINT('',(-2.057991409971,-5.961544072407));
#313 = CARTESIAN_POINT('',(-2.172327108966,-5.940722621126));
#314 = CARTESIAN_POINT('',(-2.282656966082,-5.919496509751));
#315 = CARTESIAN_POINT('',(-2.502345701511,-5.877685981599));
#316 = CARTESIAN_POINT('',(-2.613387933007,-5.856826182173));
#317 = CARTESIAN_POINT('',(-2.721681843209,-5.838613879651));
#318 = CARTESIAN_POINT('',(-2.827957979295,-5.824230315487));
#319 = CARTESIAN_POINT('',(-2.932913931157,-5.814398209224));
#320 = CARTESIAN_POINT('',(-3.037209422559,-5.809475019311));
#321 = CARTESIAN_POINT('',(-3.245976279154,-5.809475019311));
#322 = CARTESIAN_POINT('',(-3.350273287184,-5.814398243511));
#323 = CARTESIAN_POINT('',(-3.455230000858,-5.824230623434));
#324 = CARTESIAN_POINT('',(-3.561505135731,-5.838614320253));
#325 = CARTESIAN_POINT('',(-3.669796719443,-5.85682607247));
#326 = CARTESIAN_POINT('',(-3.780836914087,-5.877685469345));
#327 = CARTESIAN_POINT('',(-4.000495098723,-5.919490183158));
#328 = CARTESIAN_POINT('',(-4.110837123167,-5.94071845734));
#329 = CARTESIAN_POINT('',(-4.225202436342,-5.961547011699));
#330 = CARTESIAN_POINT('',(-4.342836894188,-5.979740026563));
#331 = CARTESIAN_POINT('',(-4.463333153076,-5.993066898257));
#332 = CARTESIAN_POINT('',(-4.586506550124,-6.));
#333 = CARTESIAN_POINT('',(-4.712388980385,-6.));
#334 = ( GEOMETRIC_REPRESENTATION_CONTEXT(2) 
PARAMETRIC_REPRESENTATION_CONTEXT() REPRESENTATION_CONTEXT('2D SPACE',''
  ) );
#335 = ORIENTED_EDGE('',*,*,#55,.F.);
#336 = ADVANCED_FACE('',(#337,#340),#43,.F.);
#337 = FACE_BOUND('',#338,.F.);
#338 = EDGE_LOOP('',(#339));
#339 = ORIENTED_EDGE('',*,*,#21,.T.);
#340 = FACE_BOUND('',#341,.F.);
#341 = EDGE_LOOP('',(#342,#372,#401,#429,#457,#485));
#342 = ORIENTED_EDGE('',*,*,#343,.F.);
#343 = EDGE_CURVE('',#344,#346,#348,.T.);
#344 = VERTEX_POINT('',#345);
#345 = CARTESIAN_POINT('',(1.9,-2.481053203783,0.));
#346 = VERTEX_POINT('',#347);
#347 = CARTESIAN_POINT('',(1.9,-2.85,0.));
#348 = SURFACE_CURVE('',#349,(#353,#360),.PCURVE_S1.);
#349 = LINE('',#350,#351);
#350 = CARTESIAN_POINT('',(1.9,2.85,0.));
#351 = VECTOR('',#352,1.);
#352 = DIRECTION('',(0.,-1.,0.));
#353 = PCURVE('',#43,#354);
#354 = DEFINITIONAL_REPRESENTATION('',(#355),#359);
#355 = LINE('',#356,#357);
#356 = CARTESIAN_POINT('',(1.9,2.85));
#357 = VECTOR('',#358,1.);
#358 = DIRECTION('',(0.,-1.));
#359 = ( GEOMETRIC_REPRESENTATION_CONTEXT(2) 
PARAMETRIC_REPRESENTATION_CONTEXT() REPRESENTATION_CONTEXT('2D SPACE',''
  ) );
#360 = PCURVE('',#361,#366);
#361 = PLANE('',#362);
#362 = AXIS2_PLACEMENT_3D('',#363,#364,#365);
#363 = CARTESIAN_POINT('',(1.9,2.85,0.));
#364 = DIRECTION('',(1.,0.,-0.));
#365 = DIRECTION('',(0.,-1.,0.));
#366 = DEFINITIONAL_REPRESENTATION('',(#367),#371);
#367 = LINE('',#368,#369);
#368 = CARTESIAN_POINT('',(0.,0.));
#369 = VECTOR('',#370,1.);
#370 = DIRECTION('',(1.,0.));
#371 = ( GEOMETRIC_REPRESENTATION_CONTEXT(2) 
PARAMETRIC_REPRESENTATION_CONTEXT() REPRESENTATION_CONTEXT('2D SPACE',''
  ) );
#372 = ORIENTED_EDGE('',*,*,#373,.F.);
#373 = EDGE_CURVE('',#374,#344,#376,.T.);
#374 = VERTEX_POINT('',#375);
#375 = CARTESIAN_POINT('',(1.9,2.481053203783,0.));
#376 = SURFACE_CURVE('',#377,(#382,#389),.PCURVE_S1.);
#377 = CIRCLE('',#378,3.125);
#378 = AXIS2_PLACEMENT_3D('',#379,#380,#381);
#379 = CARTESIAN_POINT('',(0.,0.,0.));
#380 = DIRECTION('',(0.,-0.,1.));
#381 = DIRECTION('',(0.608,0.79393702521,0.));
#382 = PCURVE('',#43,#383);
#383 = DEFINITIONAL_REPRESENTATION('',(#384),#388);
#384 = CIRCLE('',#385,3.125);
#385 = AXIS2_PLACEMENT_2D('',#386,#387);
#386 = CARTESIAN_POINT('',(4.558133775131E-16,1.70226710729E-17));
#387 = DIRECTION('',(0.608,0.79393702521));
#388 = ( GEOMETRIC_REPRESENTATION_CONTEXT(2) 
PARAMETRIC_REPRESENTATION_CONTEXT() REPRESENTATION_CONTEXT('2D SPACE',''
  ) );
#389 = PCURVE('',#390,#395);
#390 = CYLINDRICAL_SURFACE('',#391,3.125);
#391 = AXIS2_PLACEMENT_3D('',#392,#393,#394);
#392 = CARTESIAN_POINT('',(0.,0.,5.));
#393 = DIRECTION('',(0.,0.,-1.));
#394 = DIRECTION('',(-1.,0.,0.));
#395 = DEFINITIONAL_REPRESENTATION('',(#396),#400);
#396 = LINE('',#397,#398);
#397 = CARTESIAN_POINT('',(8.507520696212,5.));
#398 = VECTOR('',#399,1.);
#399 = DIRECTION('',(-1.,-0.));
#400 = ( GEOMETRIC_REPRESENTATION_CONTEXT(2) 
PARAMETRIC_REPRESENTATION_CONTEXT() REPRESENTATION_CONTEXT('2D SPACE',''
  ) );
#401 = ORIENTED_EDGE('',*,*,#402,.F.);
#402 = EDGE_CURVE('',#403,#374,#405,.T.);
#403 = VERTEX_POINT('',#404);
#404 = CARTESIAN_POINT('',(1.9,2.85,0.));
#405 = SURFACE_CURVE('',#406,(#410,#417),.PCURVE_S1.);
#406 = LINE('',#407,#408);
#407 = CARTESIAN_POINT('',(1.9,2.85,0.));
#408 = VECTOR('',#409,1.);
#409 = DIRECTION('',(0.,-1.,0.));
#410 = PCURVE('',#43,#411);
#411 = DEFINITIONAL_REPRESENTATION('',(#412),#416);
#412 = LINE('',#413,#414);
#413 = CARTESIAN_POINT('',(1.9,2.85));
#414 = VECTOR('',#415,1.);
#415 = DIRECTION('',(0.,-1.));
#416 = ( GEOMETRIC_REPRESENTATION_CONTEXT(2) 
PARAMETRIC_REPRESENTATION_CONTEXT() REPRESENTATION_CONTEXT('2D SPACE',''
  ) );
#417 = PCURVE('',#418,#423);
#418 = PLANE('',#419);
#419 = AXIS2_PLACEMENT_3D('',#420,#421,#422);
#420 = CARTESIAN_POINT('',(1.9,2.85,0.));
#421 = DIRECTION('',(1.,0.,-0.));
#422 = DIRECTION('',(0.,-1.,0.));
#423 = DEFINITIONAL_REPRESENTATION('',(#424),#428);
#424 = LINE('',#425,#426);
#425 = CARTESIAN_POINT('',(0.,0.));
#426 = VECTOR('',#427,1.);
#427 = DIRECTION('',(1.,0.));
#428 = ( GEOMETRIC_REPRESENTATION_CONTEXT(2) 
PARAMETRIC_REPRESENTATION_CONTEXT() REPRESENTATION_CONTEXT('2D SPACE',''
  ) );
#429 = ORIENTED_EDGE('',*,*,#430,.F.);
#430 = EDGE_CURVE('',#431,#403,#433,.T.);
#431 = VERTEX_POINT('',#432);
#432 = CARTESIAN_POINT('',(4.9,2.85,0.));
#433 = SURFACE_CURVE('',#434,(#438,#445),.PCURVE_S1.);
#434 = LINE('',#435,#436);
#435 = CARTESIAN_POINT('',(4.9,2.85,0.));
#436 = VECTOR('',#437,1.);
#437 = DIRECTION('',(-1.,0.,0.));
#438 = PCURVE('',#43,#439);
#439 = DEFINITIONAL_REPRESENTATION('',(#440),#444);
#440 = LINE('',#441,#442);
#441 = CARTESIAN_POINT('',(4.9,2.85));
#442 = VECTOR('',#443,1.);
#443 = DIRECTION('',(-1.,0.));
#444 = ( GEOMETRIC_REPRESENTATION_CONTEXT(2) 
PARAMETRIC_REPRESENTATION_CONTEXT() REPRESENTATION_CONTEXT('2D SPACE',''
  ) );
#445 = PCURVE('',#446,#451);
#446 = PLANE('',#447);
#447 = AXIS2_PLACEMENT_3D('',#448,#449,#450);
#448 = CARTESIAN_POINT('',(4.9,2.85,0.));
#449 = DIRECTION('',(0.,-1.,0.));
#450 = DIRECTION('',(-1.,0.,0.));
#451 = DEFINITIONAL_REPRESENTATION('',(#452),#456);
#452 = LINE('',#453,#454);
#453 = CARTESIAN_POINT('',(0.,-0.));
#454 = VECTOR('',#455,1.);
#455 = DIRECTION('',(1.,0.));
#456 = ( GEOMETRIC_REPRESENTATION_CONTEXT(2) 
PARAMETRIC_REPRESENTATION_CONTEXT() REPRESENTATION_CONTEXT('2D SPACE',''
  ) );
#457 = ORIENTED_EDGE('',*,*,#458,.F.);
#458 = EDGE_CURVE('',#459,#431,#461,.T.);
#459 = VERTEX_POINT('',#460);
#460 = CARTESIAN_POINT('',(4.9,-2.85,0.));
#461 = SURFACE_CURVE('',#462,(#466,#473),.PCURVE_S1.);
#462 = LINE('',#463,#464);
#463 = CARTESIAN_POINT('',(4.9,-2.85,0.));
#464 = VECTOR('',#465,1.);
#465 = DIRECTION('',(0.,1.,0.));
#466 = PCURVE('',#43,#467);
#467 = DEFINITIONAL_REPRESENTATION('',(#468),#472);
#468 = LINE('',#469,#470);
#469 = CARTESIAN_POINT('',(4.9,-2.85));
#470 = VECTOR('',#471,1.);
#471 = DIRECTION('',(0.,1.));
#472 = ( GEOMETRIC_REPRESENTATION_CONTEXT(2) 
PARAMETRIC_REPRESENTATION_CONTEXT() REPRESENTATION_CONTEXT('2D SPACE',''
  ) );
#473 = PCURVE('',#474,#479);
#474 = PLANE('',#475);
#475 = AXIS2_PLACEMENT_3D('',#476,#477,#478);
#476 = CARTESIAN_POINT('',(4.9,-2.85,0.));
#477 = DIRECTION('',(-1.,0.,0.));
#478 = DIRECTION('',(0.,1.,0.));
#479 = DEFINITIONAL_REPRESENTATION('',(#480),#484);
#480 = LINE('',#481,#482);
#481 = CARTESIAN_POINT('',(0.,0.));
#482 = VECTOR('',#483,1.);
#483 = DIRECTION('',(1.,0.));
#484 = ( GEOMETRIC_REPRESENTATION_CONTEXT(2) 
PARAMETRIC_REPRESENTATION_CONTEXT() REPRESENTATION_CONTEXT('2D SPACE',''
  ) );
#485 = ORIENTED_EDGE('',*,*,#486,.F.);
#486 = EDGE_CURVE('',#346,#459,#487,.T.);
#487 = SURFACE_CURVE('',#488,(#492,#499),.PCURVE_S1.);
#488 = LINE('',#489,#490);
#489 = CARTESIAN_POINT('',(1.9,-2.85,0.));
#490 = VECTOR('',#491,1.);
#491 = DIRECTION('',(1.,0.,0.));
#492 = PCURVE('',#43,#493);
#493 = DEFINITIONAL_REPRESENTATION('',(#494),#498);
#494 = LINE('',#495,#496);
#495 = CARTESIAN_POINT('',(1.9,-2.85));
#496 = VECTOR('',#497,1.);
#497 = DIRECTION('',(1.,0.));
#498 = ( GEOMETRIC_REPRESENTATION_CONTEXT(2) 
PARAMETRIC_REPRESENTATION_CONTEXT() REPRESENTATION_CONTEXT('2D SPACE',''
  ) );
#499 = PCURVE('',#500,#505);
#500 = PLANE('',#501);
#501 = AXIS2_PLACEMENT_3D('',#502,#503,#504);
#502 = CARTESIAN_POINT('',(1.9,-2.85,0.));
#503 = DIRECTION('',(0.,1.,0.));
#504 = DIRECTION('',(1.,0.,0.));
#505 = DEFINITIONAL_REPRESENTATION('',(#506),#510);
#506 = LINE('',#507,#508);
#507 = CARTESIAN_POINT('',(0.,0.));
#508 = VECTOR('',#509,1.);
#509 = DIRECTION('',(1.,0.));
#510 = ( GEOMETRIC_REPRESENTATION_CONTEXT(2) 
PARAMETRIC_REPRESENTATION_CONTEXT() REPRESENTATION_CONTEXT('2D SPACE',''
  ) );
#511 = ADVANCED_FACE('',(#512),#116,.F.);
#512 = FACE_BOUND('',#513,.T.);
#513 = EDGE_LOOP('',(#514,#538,#559,#560,#561,#562));
#514 = ORIENTED_EDGE('',*,*,#515,.T.);
#515 = EDGE_CURVE('',#516,#516,#518,.T.);
#516 = VERTEX_POINT('',#517);
#517 = CARTESIAN_POINT('',(4.9,1.5,2.5));
#518 = SURFACE_CURVE('',#519,(#524,#531),.PCURVE_S1.);
#519 = CIRCLE('',#520,1.5);
#520 = AXIS2_PLACEMENT_3D('',#521,#522,#523);
#521 = CARTESIAN_POINT('',(4.9,0.,2.5));
#522 = DIRECTION('',(-1.,0.,0.));
#523 = DIRECTION('',(0.,1.,0.));
#524 = PCURVE('',#116,#525);
#525 = DEFINITIONAL_REPRESENTATION('',(#526),#530);
#526 = LINE('',#527,#528);
#527 = CARTESIAN_POINT('',(-6.28318530718,-4.9));
#528 = VECTOR('',#529,1.);
#529 = DIRECTION('',(1.,-0.));
#530 = ( GEOMETRIC_REPRESENTATION_CONTEXT(2) 
PARAMETRIC_REPRESENTATION_CONTEXT() REPRESENTATION_CONTEXT('2D SPACE',''
  ) );
#531 = PCURVE('',#474,#532);
#532 = DEFINITIONAL_REPRESENTATION('',(#533),#537);
#533 = CIRCLE('',#534,1.5);
#534 = AXIS2_PLACEMENT_2D('',#535,#536);
#535 = CARTESIAN_POINT('',(2.85,-2.5));
#536 = DIRECTION('',(1.,0.));
#537 = ( GEOMETRIC_REPRESENTATION_CONTEXT(2) 
PARAMETRIC_REPRESENTATION_CONTEXT() REPRESENTATION_CONTEXT('2D SPACE',''
  ) );
#538 = ORIENTED_EDGE('',*,*,#539,.T.);
#539 = EDGE_CURVE('',#516,#79,#540,.T.);
#540 = SEAM_CURVE('',#541,(#545,#552),.PCURVE_S1.);
#541 = LINE('',#542,#543);
#542 = CARTESIAN_POINT('',(0.,1.5,2.5));
#543 = VECTOR('',#544,1.);
#544 = DIRECTION('',(1.,0.,0.));
#545 = PCURVE('',#116,#546);
#546 = DEFINITIONAL_REPRESENTATION('',(#547),#551);
#547 = LINE('',#548,#549);
#548 = CARTESIAN_POINT('',(-6.28318530718,0.));
#549 = VECTOR('',#550,1.);
#550 = DIRECTION('',(-0.,-1.));
#551 = ( GEOMETRIC_REPRESENTATION_CONTEXT(2) 
PARAMETRIC_REPRESENTATION_CONTEXT() REPRESENTATION_CONTEXT('2D SPACE',''
  ) );
#552 = PCURVE('',#116,#553);
#553 = DEFINITIONAL_REPRESENTATION('',(#554),#558);
#554 = LINE('',#555,#556);
#555 = CARTESIAN_POINT('',(-0.,0.));
#556 = VECTOR('',#557,1.);
#557 = DIRECTION('',(-0.,-1.));
#558 = ( GEOMETRIC_REPRESENTATION_CONTEXT(2) 
PARAMETRIC_REPRESENTATION_CONTEXT() REPRESENTATION_CONTEXT('2D SPACE',''
  ) );
#559 = ORIENTED_EDGE('',*,*,#139,.T.);
#560 = ORIENTED_EDGE('',*,*,#246,.T.);
#561 = ORIENTED_EDGE('',*,*,#78,.T.);
#562 = ORIENTED_EDGE('',*,*,#539,.F.);
#563 = ADVANCED_FACE('',(#564,#567),#233,.T.);
#564 = FACE_BOUND('',#565,.T.);
#565 = EDGE_LOOP('',(#566));
#566 = ORIENTED_EDGE('',*,*,#218,.T.);
#567 = FACE_BOUND('',#568,.T.);
#568 = EDGE_LOOP('',(#569,#599,#620,#641,#662,#683));
#569 = ORIENTED_EDGE('',*,*,#570,.T.);
#570 = EDGE_CURVE('',#571,#573,#575,.T.);
#571 = VERTEX_POINT('',#572);
#572 = CARTESIAN_POINT('',(1.9,-2.481053203783,5.));
#573 = VERTEX_POINT('',#574);
#574 = CARTESIAN_POINT('',(1.9,2.481053203783,5.));
#575 = SURFACE_CURVE('',#576,(#581,#592),.PCURVE_S1.);
#576 = CIRCLE('',#577,3.125);
#577 = AXIS2_PLACEMENT_3D('',#578,#579,#580);
#578 = CARTESIAN_POINT('',(0.,0.,5.));
#579 = DIRECTION('',(0.,-0.,-1.));
#580 = DIRECTION('',(0.608,-0.79393702521,0.));
#581 = PCURVE('',#233,#582);
#582 = DEFINITIONAL_REPRESENTATION('',(#583),#591);
#583 = ( BOUNDED_CURVE() B_SPLINE_CURVE(2,(#584,#585,#586,#587,#588,#589
,#590),.UNSPECIFIED.,.T.,.F.) B_SPLINE_CURVE_WITH_KNOTS((1,2,2,2,2,1),(
    -2.094395102393,0.,2.094395102393,4.188790204786,6.28318530718,
8.377580409573),.UNSPECIFIED.) CURVE() GEOMETRIC_REPRESENTATION_ITEM() 
RATIONAL_B_SPLINE_CURVE((1.,0.5,1.,0.5,1.,0.5,1.)) REPRESENTATION_ITEM(
  '') );
#584 = CARTESIAN_POINT('',(1.9,-2.481053203783));
#585 = CARTESIAN_POINT('',(-2.397310205233,-5.771949738163));
#586 = CARTESIAN_POINT('',(-3.098655102617,-0.404921665299));
#587 = CARTESIAN_POINT('',(-3.8,4.962106407565));
#588 = CARTESIAN_POINT('',(1.198655102617,2.885974869082));
#589 = CARTESIAN_POINT('',(6.197310205233,0.809843330598));
#590 = CARTESIAN_POINT('',(1.9,-2.481053203783));
#591 = ( GEOMETRIC_REPRESENTATION_CONTEXT(2) 
PARAMETRIC_REPRESENTATION_CONTEXT() REPRESENTATION_CONTEXT('2D SPACE',''
  ) );
#592 = PCURVE('',#390,#593);
#593 = DEFINITIONAL_REPRESENTATION('',(#594),#598);
#594 = LINE('',#595,#596);
#595 = CARTESIAN_POINT('',(4.058849918147,0.));
#596 = VECTOR('',#597,1.);
#597 = DIRECTION('',(1.,0.));
#598 = ( GEOMETRIC_REPRESENTATION_CONTEXT(2) 
PARAMETRIC_REPRESENTATION_CONTEXT() REPRESENTATION_CONTEXT('2D SPACE',''
  ) );
#599 = ORIENTED_EDGE('',*,*,#600,.T.);
#600 = EDGE_CURVE('',#573,#601,#603,.T.);
#601 = VERTEX_POINT('',#602);
#602 = CARTESIAN_POINT('',(1.9,2.85,5.));
#603 = SURFACE_CURVE('',#604,(#608,#614),.PCURVE_S1.);
#604 = LINE('',#605,#606);
#605 = CARTESIAN_POINT('',(1.9,1.425,5.));
#606 = VECTOR('',#607,1.);
#607 = DIRECTION('',(-0.,1.,0.));
#608 = PCURVE('',#233,#609);
#609 = DEFINITIONAL_REPRESENTATION('',(#610),#613);
#610 = B_SPLINE_CURVE_WITH_KNOTS('',1,(#611,#612),.UNSPECIFIED.,.F.,.F.,
  (2,2),(-4.275,1.425),.PIECEWISE_BEZIER_KNOTS.);
#611 = CARTESIAN_POINT('',(1.9,-2.85));
#612 = CARTESIAN_POINT('',(1.9,2.85));
#613 = ( GEOMETRIC_REPRESENTATION_CONTEXT(2) 
PARAMETRIC_REPRESENTATION_CONTEXT() REPRESENTATION_CONTEXT('2D SPACE',''
  ) );
#614 = PCURVE('',#418,#615);
#615 = DEFINITIONAL_REPRESENTATION('',(#616),#619);
#616 = B_SPLINE_CURVE_WITH_KNOTS('',1,(#617,#618),.UNSPECIFIED.,.F.,.F.,
  (2,2),(-4.275,1.425),.PIECEWISE_BEZIER_KNOTS.);
#617 = CARTESIAN_POINT('',(5.7,-5.));
#618 = CARTESIAN_POINT('',(0.,-5.));
#619 = ( GEOMETRIC_REPRESENTATION_CONTEXT(2) 
PARAMETRIC_REPRESENTATION_CONTEXT() REPRESENTATION_CONTEXT('2D SPACE',''
  ) );
#620 = ORIENTED_EDGE('',*,*,#621,.T.);
#621 = EDGE_CURVE('',#601,#622,#624,.T.);
#622 = VERTEX_POINT('',#623);
#623 = CARTESIAN_POINT('',(4.9,2.85,5.));
#624 = SURFACE_CURVE('',#625,(#629,#635),.PCURVE_S1.);
#625 = LINE('',#626,#627);
#626 = CARTESIAN_POINT('',(2.45,2.85,5.));
#627 = VECTOR('',#628,1.);
#628 = DIRECTION('',(1.,0.,-0.));
#629 = PCURVE('',#233,#630);
#630 = DEFINITIONAL_REPRESENTATION('',(#631),#634);
#631 = B_SPLINE_CURVE_WITH_KNOTS('',1,(#632,#633),.UNSPECIFIED.,.F.,.F.,
  (2,2),(-0.55,2.45),.PIECEWISE_BEZIER_KNOTS.);
#632 = CARTESIAN_POINT('',(1.9,2.85));
#633 = CARTESIAN_POINT('',(4.9,2.85));
#634 = ( GEOMETRIC_REPRESENTATION_CONTEXT(2) 
PARAMETRIC_REPRESENTATION_CONTEXT() REPRESENTATION_CONTEXT('2D SPACE',''
  ) );
#635 = PCURVE('',#446,#636);
#636 = DEFINITIONAL_REPRESENTATION('',(#637),#640);
#637 = B_SPLINE_CURVE_WITH_KNOTS('',1,(#638,#639),.UNSPECIFIED.,.F.,.F.,
  (2,2),(-0.55,2.45),.PIECEWISE_BEZIER_KNOTS.);
#638 = CARTESIAN_POINT('',(3.,-5.));
#639 = CARTESIAN_POINT('',(0.,-5.));
#640 = ( GEOMETRIC_REPRESENTATION_CONTEXT(2) 
PARAMETRIC_REPRESENTATION_CONTEXT() REPRESENTATION_CONTEXT('2D SPACE',''
  ) );
#641 = ORIENTED_EDGE('',*,*,#642,.T.);
#642 = EDGE_CURVE('',#622,#643,#645,.T.);
#643 = VERTEX_POINT('',#644);
#644 = CARTESIAN_POINT('',(4.9,-2.85,5.));
#645 = SURFACE_CURVE('',#646,(#650,#656),.PCURVE_S1.);
#646 = LINE('',#647,#648);
#647 = CARTESIAN_POINT('',(4.9,-1.425,5.));
#648 = VECTOR('',#649,1.);
#649 = DIRECTION('',(0.,-1.,0.));
#650 = PCURVE('',#233,#651);
#651 = DEFINITIONAL_REPRESENTATION('',(#652),#655);
#652 = B_SPLINE_CURVE_WITH_KNOTS('',1,(#653,#654),.UNSPECIFIED.,.F.,.F.,
  (2,2),(-4.275,1.425),.PIECEWISE_BEZIER_KNOTS.);
#653 = CARTESIAN_POINT('',(4.9,2.85));
#654 = CARTESIAN_POINT('',(4.9,-2.85));
#655 = ( GEOMETRIC_REPRESENTATION_CONTEXT(2) 
PARAMETRIC_REPRESENTATION_CONTEXT() REPRESENTATION_CONTEXT('2D SPACE',''
  ) );
#656 = PCURVE('',#474,#657);
#657 = DEFINITIONAL_REPRESENTATION('',(#658),#661);
#658 = B_SPLINE_CURVE_WITH_KNOTS('',1,(#659,#660),.UNSPECIFIED.,.F.,.F.,
  (2,2),(-4.275,1.425),.PIECEWISE_BEZIER_KNOTS.);
#659 = CARTESIAN_POINT('',(5.7,-5.));
#660 = CARTESIAN_POINT('',(0.,-5.));
#661 = ( GEOMETRIC_REPRESENTATION_CONTEXT(2) 
PARAMETRIC_REPRESENTATION_CONTEXT() REPRESENTATION_CONTEXT('2D SPACE',''
  ) );
#662 = ORIENTED_EDGE('',*,*,#663,.T.);
#663 = EDGE_CURVE('',#643,#664,#666,.T.);
#664 = VERTEX_POINT('',#665);
#665 = CARTESIAN_POINT('',(1.9,-2.85,5.));
#666 = SURFACE_CURVE('',#667,(#671,#677),.PCURVE_S1.);
#667 = LINE('',#668,#669);
#668 = CARTESIAN_POINT('',(0.95,-2.85,5.));
#669 = VECTOR('',#670,1.);
#670 = DIRECTION('',(-1.,0.,0.));
#671 = PCURVE('',#233,#672);
#672 = DEFINITIONAL_REPRESENTATION('',(#673),#676);
#673 = B_SPLINE_CURVE_WITH_KNOTS('',1,(#674,#675),.UNSPECIFIED.,.F.,.F.,
  (2,2),(-3.95,-0.95),.PIECEWISE_BEZIER_KNOTS.);
#674 = CARTESIAN_POINT('',(4.9,-2.85));
#675 = CARTESIAN_POINT('',(1.9,-2.85));
#676 = ( GEOMETRIC_REPRESENTATION_CONTEXT(2) 
PARAMETRIC_REPRESENTATION_CONTEXT() REPRESENTATION_CONTEXT('2D SPACE',''
  ) );
#677 = PCURVE('',#500,#678);
#678 = DEFINITIONAL_REPRESENTATION('',(#679),#682);
#679 = B_SPLINE_CURVE_WITH_KNOTS('',1,(#680,#681),.UNSPECIFIED.,.F.,.F.,
  (2,2),(-3.95,-0.95),.PIECEWISE_BEZIER_KNOTS.);
#680 = CARTESIAN_POINT('',(3.,-5.));
#681 = CARTESIAN_POINT('',(0.,-5.));
#682 = ( GEOMETRIC_REPRESENTATION_CONTEXT(2) 
PARAMETRIC_REPRESENTATION_CONTEXT() REPRESENTATION_CONTEXT('2D SPACE',''
  ) );
#683 = ORIENTED_EDGE('',*,*,#684,.T.);
#684 = EDGE_CURVE('',#664,#571,#685,.T.);
#685 = SURFACE_CURVE('',#686,(#690,#696),.PCURVE_S1.);
#686 = LINE('',#687,#688);
#687 = CARTESIAN_POINT('',(1.9,1.425,5.));
#688 = VECTOR('',#689,1.);
#689 = DIRECTION('',(-0.,1.,0.));
#690 = PCURVE('',#233,#691);
#691 = DEFINITIONAL_REPRESENTATION('',(#692),#695);
#692 = B_SPLINE_CURVE_WITH_KNOTS('',1,(#693,#694),.UNSPECIFIED.,.F.,.F.,
  (2,2),(-4.275,1.425),.PIECEWISE_BEZIER_KNOTS.);
#693 = CARTESIAN_POINT('',(1.9,-2.85));
#694 = CARTESIAN_POINT('',(1.9,2.85));
#695 = ( GEOMETRIC_REPRESENTATION_CONTEXT(2) 
PARAMETRIC_REPRESENTATION_CONTEXT() REPRESENTATION_CONTEXT('2D SPACE',''
  ) );
#696 = PCURVE('',#361,#697);
#697 = DEFINITIONAL_REPRESENTATION('',(#698),#701);
#698 = B_SPLINE_CURVE_WITH_KNOTS('',1,(#699,#700),.UNSPECIFIED.,.F.,.F.,
  (2,2),(-4.275,1.425),.PIECEWISE_BEZIER_KNOTS.);
#699 = CARTESIAN_POINT('',(5.7,-5.));
#700 = CARTESIAN_POINT('',(0.,-5.));
#701 = ( GEOMETRIC_REPRESENTATION_CONTEXT(2) 
PARAMETRIC_REPRESENTATION_CONTEXT() REPRESENTATION_CONTEXT('2D SPACE',''
  ) );
#702 = ADVANCED_FACE('',(#703),#361,.T.);
#703 = FACE_BOUND('',#704,.T.);
#704 = EDGE_LOOP('',(#705,#706,#725,#726));
#705 = ORIENTED_EDGE('',*,*,#343,.F.);
#706 = ORIENTED_EDGE('',*,*,#707,.F.);
#707 = EDGE_CURVE('',#571,#344,#708,.T.);
#708 = SURFACE_CURVE('',#709,(#713,#719),.PCURVE_S1.);
#709 = LINE('',#710,#711);
#710 = CARTESIAN_POINT('',(1.9,-2.481053203783,5.));
#711 = VECTOR('',#712,1.);
#712 = DIRECTION('',(0.,0.,-1.));
#713 = PCURVE('',#361,#714);
#714 = DEFINITIONAL_REPRESENTATION('',(#715),#718);
#715 = B_SPLINE_CURVE_WITH_KNOTS('',1,(#716,#717),.UNSPECIFIED.,.F.,.F.,
  (2,2),(-5.999999999062E-07,5.0000006),.PIECEWISE_BEZIER_KNOTS.);
#716 = CARTESIAN_POINT('',(5.331053203783,-5.0000006));
#717 = CARTESIAN_POINT('',(5.331053203783,5.999999999062E-07));
#718 = ( GEOMETRIC_REPRESENTATION_CONTEXT(2) 
PARAMETRIC_REPRESENTATION_CONTEXT() REPRESENTATION_CONTEXT('2D SPACE',''
  ) );
#719 = PCURVE('',#390,#720);
#720 = DEFINITIONAL_REPRESENTATION('',(#721),#724);
#721 = B_SPLINE_CURVE_WITH_KNOTS('',1,(#722,#723),.UNSPECIFIED.,.F.,.F.,
  (2,2),(0.,5.),.PIECEWISE_BEZIER_KNOTS.);
#722 = CARTESIAN_POINT('',(4.058849918147,0.));
#723 = CARTESIAN_POINT('',(4.058849918147,5.));
#724 = ( GEOMETRIC_REPRESENTATION_CONTEXT(2) 
PARAMETRIC_REPRESENTATION_CONTEXT() REPRESENTATION_CONTEXT('2D SPACE',''
  ) );
#725 = ORIENTED_EDGE('',*,*,#684,.F.);
#726 = ORIENTED_EDGE('',*,*,#727,.F.);
#727 = EDGE_CURVE('',#346,#664,#728,.T.);
#728 = SURFACE_CURVE('',#729,(#733,#740),.PCURVE_S1.);
#729 = LINE('',#730,#731);
#730 = CARTESIAN_POINT('',(1.9,-2.85,0.));
#731 = VECTOR('',#732,1.);
#732 = DIRECTION('',(0.,0.,1.));
#733 = PCURVE('',#361,#734);
#734 = DEFINITIONAL_REPRESENTATION('',(#735),#739);
#735 = LINE('',#736,#737);
#736 = CARTESIAN_POINT('',(5.7,0.));
#737 = VECTOR('',#738,1.);
#738 = DIRECTION('',(0.,-1.));
#739 = ( GEOMETRIC_REPRESENTATION_CONTEXT(2) 
PARAMETRIC_REPRESENTATION_CONTEXT() REPRESENTATION_CONTEXT('2D SPACE',''
  ) );
#740 = PCURVE('',#500,#741);
#741 = DEFINITIONAL_REPRESENTATION('',(#742),#746);
#742 = LINE('',#743,#744);
#743 = CARTESIAN_POINT('',(0.,0.));
#744 = VECTOR('',#745,1.);
#745 = DIRECTION('',(0.,-1.));
#746 = ( GEOMETRIC_REPRESENTATION_CONTEXT(2) 
PARAMETRIC_REPRESENTATION_CONTEXT() REPRESENTATION_CONTEXT('2D SPACE',''
  ) );
#747 = ADVANCED_FACE('',(#748),#390,.F.);
#748 = FACE_BOUND('',#749,.F.);
#749 = EDGE_LOOP('',(#750,#751,#770,#771));
#750 = ORIENTED_EDGE('',*,*,#570,.T.);
#751 = ORIENTED_EDGE('',*,*,#752,.T.);
#752 = EDGE_CURVE('',#573,#374,#753,.T.);
#753 = SURFACE_CURVE('',#754,(#758,#764),.PCURVE_S1.);
#754 = LINE('',#755,#756);
#755 = CARTESIAN_POINT('',(1.9,2.481053203783,5.));
#756 = VECTOR('',#757,1.);
#757 = DIRECTION('',(0.,0.,-1.));
#758 = PCURVE('',#390,#759);
#759 = DEFINITIONAL_REPRESENTATION('',(#760),#763);
#760 = B_SPLINE_CURVE_WITH_KNOTS('',1,(#761,#762),.UNSPECIFIED.,.F.,.F.,
  (2,2),(0.,5.),.PIECEWISE_BEZIER_KNOTS.);
#761 = CARTESIAN_POINT('',(8.507520696212,0.));
#762 = CARTESIAN_POINT('',(8.507520696212,5.));
#763 = ( GEOMETRIC_REPRESENTATION_CONTEXT(2) 
PARAMETRIC_REPRESENTATION_CONTEXT() REPRESENTATION_CONTEXT('2D SPACE',''
  ) );
#764 = PCURVE('',#418,#765);
#765 = DEFINITIONAL_REPRESENTATION('',(#766),#769);
#766 = B_SPLINE_CURVE_WITH_KNOTS('',1,(#767,#768),.UNSPECIFIED.,.F.,.F.,
  (2,2),(-5.999999999062E-07,5.0000006),.PIECEWISE_BEZIER_KNOTS.);
#767 = CARTESIAN_POINT('',(0.368946796217,-5.0000006));
#768 = CARTESIAN_POINT('',(0.368946796217,5.999999999062E-07));
#769 = ( GEOMETRIC_REPRESENTATION_CONTEXT(2) 
PARAMETRIC_REPRESENTATION_CONTEXT() REPRESENTATION_CONTEXT('2D SPACE',''
  ) );
#770 = ORIENTED_EDGE('',*,*,#373,.T.);
#771 = ORIENTED_EDGE('',*,*,#707,.F.);
#772 = ADVANCED_FACE('',(#773),#418,.T.);
#773 = FACE_BOUND('',#774,.T.);
#774 = EDGE_LOOP('',(#775,#776,#797,#798));
#775 = ORIENTED_EDGE('',*,*,#402,.F.);
#776 = ORIENTED_EDGE('',*,*,#777,.T.);
#777 = EDGE_CURVE('',#403,#601,#778,.T.);
#778 = SURFACE_CURVE('',#779,(#783,#790),.PCURVE_S1.);
#779 = LINE('',#780,#781);
#780 = CARTESIAN_POINT('',(1.9,2.85,0.));
#781 = VECTOR('',#782,1.);
#782 = DIRECTION('',(0.,0.,1.));
#783 = PCURVE('',#418,#784);
#784 = DEFINITIONAL_REPRESENTATION('',(#785),#789);
#785 = LINE('',#786,#787);
#786 = CARTESIAN_POINT('',(0.,0.));
#787 = VECTOR('',#788,1.);
#788 = DIRECTION('',(0.,-1.));
#789 = ( GEOMETRIC_REPRESENTATION_CONTEXT(2) 
PARAMETRIC_REPRESENTATION_CONTEXT() REPRESENTATION_CONTEXT('2D SPACE',''
  ) );
#790 = PCURVE('',#446,#791);
#791 = DEFINITIONAL_REPRESENTATION('',(#792),#796);
#792 = LINE('',#793,#794);
#793 = CARTESIAN_POINT('',(3.,0.));
#794 = VECTOR('',#795,1.);
#795 = DIRECTION('',(0.,-1.));
#796 = ( GEOMETRIC_REPRESENTATION_CONTEXT(2) 
PARAMETRIC_REPRESENTATION_CONTEXT() REPRESENTATION_CONTEXT('2D SPACE',''
  ) );
#797 = ORIENTED_EDGE('',*,*,#600,.F.);
#798 = ORIENTED_EDGE('',*,*,#752,.T.);
#799 = ADVANCED_FACE('',(#800),#446,.T.);
#800 = FACE_BOUND('',#801,.T.);
#801 = EDGE_LOOP('',(#802,#803,#824,#825));
#802 = ORIENTED_EDGE('',*,*,#430,.F.);
#803 = ORIENTED_EDGE('',*,*,#804,.T.);
#804 = EDGE_CURVE('',#431,#622,#805,.T.);
#805 = SURFACE_CURVE('',#806,(#810,#817),.PCURVE_S1.);
#806 = LINE('',#807,#808);
#807 = CARTESIAN_POINT('',(4.9,2.85,0.));
#808 = VECTOR('',#809,1.);
#809 = DIRECTION('',(0.,0.,1.));
#810 = PCURVE('',#446,#811);
#811 = DEFINITIONAL_REPRESENTATION('',(#812),#816);
#812 = LINE('',#813,#814);
#813 = CARTESIAN_POINT('',(0.,-0.));
#814 = VECTOR('',#815,1.);
#815 = DIRECTION('',(0.,-1.));
#816 = ( GEOMETRIC_REPRESENTATION_CONTEXT(2) 
PARAMETRIC_REPRESENTATION_CONTEXT() REPRESENTATION_CONTEXT('2D SPACE',''
  ) );
#817 = PCURVE('',#474,#818);
#818 = DEFINITIONAL_REPRESENTATION('',(#819),#823);
#819 = LINE('',#820,#821);
#820 = CARTESIAN_POINT('',(5.7,0.));
#821 = VECTOR('',#822,1.);
#822 = DIRECTION('',(0.,-1.));
#823 = ( GEOMETRIC_REPRESENTATION_CONTEXT(2) 
PARAMETRIC_REPRESENTATION_CONTEXT() REPRESENTATION_CONTEXT('2D SPACE',''
  ) );
#824 = ORIENTED_EDGE('',*,*,#621,.F.);
#825 = ORIENTED_EDGE('',*,*,#777,.F.);
#826 = ADVANCED_FACE('',(#827,#853),#474,.T.);
#827 = FACE_BOUND('',#828,.T.);
#828 = EDGE_LOOP('',(#829,#830,#851,#852));
#829 = ORIENTED_EDGE('',*,*,#458,.F.);
#830 = ORIENTED_EDGE('',*,*,#831,.T.);
#831 = EDGE_CURVE('',#459,#643,#832,.T.);
#832 = SURFACE_CURVE('',#833,(#837,#844),.PCURVE_S1.);
#833 = LINE('',#834,#835);
#834 = CARTESIAN_POINT('',(4.9,-2.85,0.));
#835 = VECTOR('',#836,1.);
#836 = DIRECTION('',(0.,0.,1.));
#837 = PCURVE('',#474,#838);
#838 = DEFINITIONAL_REPRESENTATION('',(#839),#843);
#839 = LINE('',#840,#841);
#840 = CARTESIAN_POINT('',(0.,0.));
#841 = VECTOR('',#842,1.);
#842 = DIRECTION('',(0.,-1.));
#843 = ( GEOMETRIC_REPRESENTATION_CONTEXT(2) 
PARAMETRIC_REPRESENTATION_CONTEXT() REPRESENTATION_CONTEXT('2D SPACE',''
  ) );
#844 = PCURVE('',#500,#845);
#845 = DEFINITIONAL_REPRESENTATION('',(#846),#850);
#846 = LINE('',#847,#848);
#847 = CARTESIAN_POINT('',(3.,0.));
#848 = VECTOR('',#849,1.);
#849 = DIRECTION('',(0.,-1.));
#850 = ( GEOMETRIC_REPRESENTATION_CONTEXT(2) 
PARAMETRIC_REPRESENTATION_CONTEXT() REPRESENTATION_CONTEXT('2D SPACE',''
  ) );
#851 = ORIENTED_EDGE('',*,*,#642,.F.);
#852 = ORIENTED_EDGE('',*,*,#804,.F.);
#853 = FACE_BOUND('',#854,.T.);
#854 = EDGE_LOOP('',(#855));
#855 = ORIENTED_EDGE('',*,*,#515,.F.);
#856 = ADVANCED_FACE('',(#857),#500,.T.);
#857 = FACE_BOUND('',#858,.T.);
#858 = EDGE_LOOP('',(#859,#860,#861,#862));
#859 = ORIENTED_EDGE('',*,*,#486,.F.);
#860 = ORIENTED_EDGE('',*,*,#727,.T.);
#861 = ORIENTED_EDGE('',*,*,#663,.F.);
#862 = ORIENTED_EDGE('',*,*,#831,.F.);
#863 = ( GEOMETRIC_REPRESENTATION_CONTEXT(3) 
GLOBAL_UNCERTAINTY_ASSIGNED_CONTEXT((#867)) GLOBAL_UNIT_ASSIGNED_CONTEXT
((#864,#865,#866)) REPRESENTATION_CONTEXT('Context #1',
  '3D Context with UNIT and UNCERTAINTY') );
#864 = ( LENGTH_UNIT() NAMED_UNIT(*) SI_UNIT(.MILLI.,.METRE.) );
#865 = ( NAMED_UNIT(*) PLANE_ANGLE_UNIT() SI_UNIT($,.RADIAN.) );
#866 = ( NAMED_UNIT(*) SI_UNIT($,.STERADIAN.) SOLID_ANGLE_UNIT() );
#867 = UNCERTAINTY_MEASURE_WITH_UNIT(LENGTH_MEASURE(1.E-07),#864,
  'distance_accuracy_value','confusion accuracy');
#868 = PRODUCT_RELATED_PRODUCT_CATEGORY('part',$,(#7));
ENDSEC;
END-ISO-10303-21;
