# https://github.com/mikedh/trimesh

o HA_Follower.stl
v -29.50000000 20.00000000 0.00000000
v -29.50000000 -20.00000000 0.00000000
v -29.50000000 20.00000000 12.00000000
v -29.50000000 -20.00000000 12.00000000
v -26.10000038 -20.00000000 0.00000000
v -26.10000038 -20.00000000 12.00000000
v -29.00000000 -18.00000000 12.00000000
v -26.10000038 -18.00000000 12.00000000
v -26.10000038 20.00000000 12.00000000
v -29.00000000 18.00000000 12.00000000
v -26.10000038 18.00000000 12.00000000
v -26.10000038 20.00000000 0.00000000
v -26.10000038 -17.50000000 0.00000000
v -26.10000038 -17.50000000 56.00000000
v -26.10000038 -18.00000000 56.00000000
v -26.10000038 17.50000000 0.00000000
v -26.10000038 17.50000000 56.00000000
v -26.10000038 18.00000000 56.00000000
v -29.00000000 18.00000000 56.00000000
v -29.00000000 -18.00000000 56.00000000
v -22.89999962 -17.50000000 0.00000000
v -22.89999962 -17.50000000 56.00000000
v -20.00000000 -18.00000000 56.00000000
v -22.89999962 -18.00000000 56.00000000
v -22.89999962 17.50000000 56.00000000
v -20.00000000 18.00000000 56.00000000
v -22.89999962 18.00000000 56.00000000
v -22.89999962 17.50000000 0.00000000
v -22.89999962 18.00000000 12.00000000
v -22.89999962 20.00000000 0.00000000
v -22.89999962 20.00000000 12.00000000
v -22.89999962 -20.00000000 0.00000000
v -22.89999962 -18.00000000 12.00000000
v -22.89999962 -20.00000000 12.00000000
v -22.50000000 18.00000000 22.00000000
v -22.50000000 18.00000000 12.00000000
v -20.00000000 18.00000000 22.00000000
v -20.00000000 13.00000000 50.40000153
v -20.00000000 13.00000000 22.00000000
v -20.00000000 -13.00000000 50.40000153
v -20.00000000 -18.00000000 22.00000000
v -20.00000000 -13.00000000 22.00000000
v -22.50000000 -18.00000000 12.00000000
v -22.50000000 -18.00000000 22.00000000
v -22.50000000 20.00000000 12.00000000
v -22.50000000 -20.00000000 12.00000000
v -22.50000000 20.00000000 22.00000000
v -19.50000000 13.00000000 22.00000000
v -19.50000000 20.00000000 22.00000000
v -14.50000000 13.00000000 0.00000000
v -19.50000000 13.00000000 0.00000000
v -14.50000000 13.00000000 50.40000153
v -14.50000000 -13.00000000 50.40000153
v -14.50000000 -13.00000000 0.00000000
v -19.50000000 -13.00000000 22.00000000
v -19.50000000 -13.00000000 0.00000000
v -22.50000000 -20.00000000 22.00000000
v -19.50000000 -20.00000000 22.00000000
v -14.50000000 6.00000000 50.28318405
v -14.50000000 6.00000000 0.00000000
v -14.50000000 -6.00000000 50.28318405
v -14.50000000 -6.00000000 0.00000000
v -12.69999981 6.00000000 -14.40530968
v -12.69999981 6.00000000 -16.28318596
v -18.50000000 6.00000000 -16.28318596
v -12.69999981 6.00000000 -11.87787628
v -10.30000019 6.00000000 -11.87787628
v -10.30000019 6.00000000 -14.40530968
v -12.69999981 6.00000000 -8.12212372
v -18.50000000 6.00000000 0.00000000
v -12.69999981 6.00000000 -5.59469080
v -10.30000019 6.00000000 -8.12212372
v -10.30000019 6.00000000 -5.59469080
v -12.69999981 6.00000000 -1.83893871
v -12.69999981 6.00000000 0.68849468
v -10.30000019 6.00000000 0.68849468
v -10.30000019 6.00000000 -1.83893871
v -12.69999981 6.00000000 4.44424677
v -12.69999981 6.00000000 6.97168016
v -10.30000019 6.00000000 4.44424677
v -10.30000019 6.00000000 6.97168016
v -10.30000019 6.00000000 13.25486565
v -10.30000019 6.00000000 10.72743225
v -12.69999981 6.00000000 10.72743225
v -12.69999981 6.00000000 13.25486565
v -10.30000019 6.00000000 19.53804970
v -12.69999981 6.00000000 17.01061630
v -12.69999981 6.00000000 19.53804970
v -10.30000019 6.00000000 17.01061630
v -10.30000019 6.00000000 25.82123566
v -12.69999981 6.00000000 23.29380226
v -12.69999981 6.00000000 25.82123566
v -10.30000019 6.00000000 23.29380226
v -10.30000019 6.00000000 32.10441971
v -10.30000019 6.00000000 29.57698822
v -12.69999981 6.00000000 29.57698822
v -12.69999981 6.00000000 32.10441971
v -12.69999981 6.00000000 38.38760757
v -10.30000019 6.00000000 35.86017227
v -12.69999981 6.00000000 35.86017227
v -10.30000019 6.00000000 38.38760757
v -10.30000019 6.00000000 44.67079163
v -10.30000019 6.00000000 42.14336014
v -12.69999981 6.00000000 42.14336014
v -12.69999981 6.00000000 44.67079163
v -12.69999981 6.00000000 48.42654419
v -10.30000019 6.00000000 50.28318405
v -10.30000019 6.00000000 48.42654419
v -18.50000000 -6.00000000 -16.28318596
v -18.50000000 -6.00000000 0.00000000
v -12.69999981 -6.00000000 -16.28318596
v -12.69999981 -6.00000000 -14.40530968
v -12.69999981 -6.00000000 -11.87787628
v -10.30000019 -6.00000000 -14.40530968
v -10.30000019 -6.00000000 -11.87787628
v -12.69999981 -6.00000000 -8.12212372
v -10.30000019 -6.00000000 -8.12212372
v -12.69999981 -6.00000000 -5.59469080
v -10.30000019 -6.00000000 -5.59469080
v -12.69999981 -6.00000000 -1.83893871
v -12.69999981 -6.00000000 0.68849468
v -10.30000019 -6.00000000 -1.83893871
v -10.30000019 -6.00000000 0.68849468
v -12.69999981 -6.00000000 4.44424677
v -10.30000019 -6.00000000 4.44424677
v -12.69999981 -6.00000000 6.97168016
v -10.30000019 -6.00000000 6.97168016
v -10.30000019 -6.00000000 10.72743225
v -10.30000019 -6.00000000 13.25486565
v -12.69999981 -6.00000000 10.72743225
v -12.69999981 -6.00000000 13.25486565
v -12.69999981 -6.00000000 17.01061630
v -10.30000019 -6.00000000 19.53804970
v -12.69999981 -6.00000000 19.53804970
v -10.30000019 -6.00000000 17.01061630
v -12.69999981 -6.00000000 23.29380226
v -10.30000019 -6.00000000 25.82123566
v -12.69999981 -6.00000000 25.82123566
v -10.30000019 -6.00000000 23.29380226
v -10.30000019 -6.00000000 29.57698822
v -10.30000019 -6.00000000 32.10441971
v -12.69999981 -6.00000000 29.57698822
v -12.69999981 -6.00000000 32.10441971
v -10.30000019 -6.00000000 35.86017227
v -12.69999981 -6.00000000 38.38760757
v -12.69999981 -6.00000000 35.86017227
v -10.30000019 -6.00000000 38.38760757
v -10.30000019 -6.00000000 42.14336014
v -10.30000019 -6.00000000 44.67079163
v -12.69999981 -6.00000000 42.14336014
v -12.69999981 -6.00000000 44.67079163
v -12.69999981 -6.00000000 48.42654419
v -10.30000019 -6.00000000 48.42654419
v -10.30000019 -6.00000000 50.28318405
v -19.50000000 -20.00000000 0.00000000
v -19.50000000 20.00000000 0.00000000
f 1 2 3
f 2 4 3
f 5 4 2
f 5 6 4
f 6 7 4
f 8 7 6
f 9 10 11
f 9 3 10
f 3 4 7
f 3 7 10
f 3 12 1
f 9 12 3
f 8 5 13
f 6 5 8
f 14 8 13
f 15 8 14
f 11 16 12
f 11 12 9
f 17 11 18
f 17 16 11
f 18 11 10
f 18 10 19
f 7 20 10
f 10 20 19
f 8 15 7
f 7 15 20
f 21 22 13
f 13 22 14
f 14 20 15
f 23 22 24
f 17 19 20
f 17 20 14
f 18 19 17
f 25 14 22
f 25 17 14
f 26 27 25
f 26 22 23
f 26 25 22
f 25 28 16
f 25 16 17
f 28 29 30
f 30 29 31
f 29 25 27
f 28 25 29
f 32 33 21
f 32 34 33
f 33 22 21
f 33 24 22
f 35 36 29
f 27 35 29
f 26 37 35
f 26 35 27
f 38 39 37
f 26 38 37
f 40 41 42
f 23 40 38
f 23 41 40
f 23 38 26
f 43 44 33
f 44 24 33
f 41 23 44
f 44 23 24
f 45 31 29
f 45 29 36
f 43 33 34
f 43 34 46
f 36 35 45
f 45 35 47
f 37 47 35
f 37 39 48
f 49 47 37
f 48 49 37
f 48 50 51
f 38 48 39
f 52 48 38
f 52 50 48
f 38 40 53
f 52 38 53
f 54 55 56
f 55 40 42
f 55 53 40
f 54 53 55
f 41 44 57
f 41 57 58
f 55 42 41
f 58 55 41
f 46 44 43
f 46 57 44
f 59 60 50
f 59 50 52
f 61 54 62
f 53 54 61
f 52 53 61
f 52 61 59
f 63 64 65
f 66 63 65
f 67 68 63
f 67 63 66
f 69 66 65
f 70 69 65
f 71 72 69
f 71 69 70
f 73 72 71
f 60 74 71
f 60 71 70
f 75 74 60
f 76 77 74
f 76 74 75
f 78 75 60
f 79 80 78
f 81 80 79
f 82 83 84
f 82 84 85
f 86 87 88
f 86 89 87
f 90 91 92
f 90 93 91
f 94 95 96
f 94 96 97
f 98 99 100
f 101 99 98
f 102 103 104
f 102 104 105
f 59 106 105
f 59 104 98
f 59 100 97
f 59 98 100
f 59 105 104
f 107 108 106
f 107 106 59
f 60 59 97
f 60 97 96
f 60 96 92
f 60 92 91
f 60 91 88
f 60 88 87
f 60 87 85
f 60 85 84
f 60 84 79
f 60 79 78
f 109 110 65
f 65 110 70
f 111 112 109
f 112 113 109
f 114 115 112
f 112 115 113
f 113 116 109
f 116 110 109
f 117 118 116
f 116 118 110
f 117 119 118
f 120 62 118
f 118 62 110
f 120 121 62
f 122 123 120
f 120 123 121
f 121 124 62
f 125 126 124
f 125 127 126
f 128 129 130
f 130 129 131
f 132 133 134
f 135 133 132
f 136 137 138
f 139 137 136
f 140 141 142
f 142 141 143
f 144 145 146
f 144 147 145
f 148 149 150
f 150 149 151
f 152 61 151
f 150 61 145
f 146 61 143
f 145 61 146
f 151 61 150
f 153 154 152
f 152 154 61
f 61 62 143
f 143 62 142
f 142 62 138
f 138 62 136
f 136 62 134
f 134 62 132
f 132 62 131
f 131 62 130
f 130 62 126
f 126 62 124
f 107 59 61
f 107 61 154
f 65 64 109
f 109 64 111
f 111 64 63
f 112 111 63
f 63 68 112
f 112 68 114
f 115 114 68
f 115 68 67
f 67 66 113
f 67 113 115
f 116 113 66
f 116 66 69
f 69 72 116
f 116 72 117
f 119 117 72
f 119 72 73
f 73 71 118
f 73 118 119
f 120 118 71
f 120 71 74
f 74 77 120
f 120 77 122
f 123 122 77
f 123 77 76
f 76 75 121
f 76 121 123
f 124 121 75
f 124 75 78
f 78 80 124
f 124 80 125
f 127 125 80
f 127 80 81
f 81 79 126
f 81 126 127
f 130 126 79
f 130 79 84
f 84 83 130
f 130 83 128
f 129 128 83
f 129 83 82
f 82 85 131
f 82 131 129
f 132 131 85
f 132 85 87
f 87 89 132
f 132 89 135
f 133 135 89
f 133 89 86
f 86 88 134
f 86 134 133
f 136 134 88
f 136 88 91
f 91 93 136
f 136 93 139
f 137 139 93
f 137 93 90
f 90 92 138
f 90 138 137
f 142 138 92
f 142 92 96
f 96 95 142
f 142 95 140
f 141 140 95
f 141 95 94
f 94 97 143
f 94 143 141
f 146 143 97
f 146 97 100
f 100 99 146
f 146 99 144
f 147 144 99
f 147 99 101
f 101 98 145
f 101 145 147
f 150 145 98
f 150 98 104
f 104 103 150
f 150 103 148
f 149 148 103
f 149 103 102
f 102 105 151
f 102 151 149
f 152 151 105
f 152 105 106
f 106 108 152
f 152 108 153
f 154 153 108
f 154 108 107
f 46 58 57
f 32 46 34
f 155 46 32
f 155 58 46
f 45 156 30
f 45 30 31
f 49 45 47
f 49 156 45
f 21 155 32
f 56 155 21
f 13 56 21
f 2 13 5
f 110 62 54
f 110 54 56
f 110 56 13
f 70 110 13
f 50 60 70
f 51 50 70
f 28 156 51
f 30 156 28
f 16 28 51
f 16 70 13
f 16 51 70
f 1 12 16
f 1 13 2
f 1 16 13
f 48 156 49
f 48 51 156
f 58 56 55
f 58 155 56

