o convex_0
v -9.937119 6.194366 -0.036048
v -18.558050 -6.405456 -16.614760
v -18.558050 6.194366 -16.614760
v -18.558050 -6.405456 -0.036048
v -9.937119 -6.405456 -14.625185
v -18.558050 6.194366 -0.036048
v -9.937119 -6.405456 -0.036048
v -9.937119 6.194366 -14.625185
v -12.590233 -6.405456 -16.614760
v -12.590233 6.194366 -16.614760
f 9 3 10 
f 3 2 4 
f 4 2 5 
f 1 3 6 
f 3 4 6 
f 4 1 6 
f 1 4 7 
f 5 1 7 
f 4 5 7 
f 3 1 8 
f 1 5 8 
f 8 5 9 
f 2 3 9 
f 5 2 9 
f 3 8 10 
f 8 9 10 
o convex_1
v -19.222561 13.488025 51.023660
v -29.830536 -20.331574 -0.036048
v -19.222561 -20.331574 -0.036048
v -29.830536 20.120484 -0.036048
v -29.166888 -18.339857 56.331574
v -19.222561 20.120484 -0.036048
v -29.166888 18.128767 56.331574
v -19.885170 -18.339857 56.331574
v -19.885170 18.128767 56.331574
v -19.222561 -20.331574 22.519829
v -29.830536 20.120484 12.566110
v -19.222561 20.120484 22.519829
v -29.830536 -20.331574 12.566110
v -19.222561 -13.029930 51.023660
v -22.537683 20.120484 22.519829
v -22.537683 -20.331574 22.519829
f 15 23 26 
f 13 12 14 
f 11 13 16 
f 13 14 16 
f 17 15 18 
f 17 18 19 
f 18 11 19 
f 13 11 20 
f 12 13 20 
f 18 15 20 
f 14 12 21 
f 16 14 21 
f 15 17 21 
f 11 16 22 
f 19 11 22 
f 17 19 22 
f 16 21 22 
f 12 20 23 
f 21 12 23 
f 15 21 23 
f 11 18 24 
f 20 11 24 
f 18 20 24 
f 21 17 25 
f 17 22 25 
f 22 21 25 
f 20 15 26 
f 23 20 26 
o convex_2
v -9.937119 6.192808 50.361615
v -19.221198 -13.036941 -0.036048
v -19.221198 13.488999 -0.036048
v -19.221198 -13.036941 51.026386
v -9.937119 -6.405456 -0.036048
v -19.221198 13.488999 51.026386
v -13.916659 13.488999 -0.036048
v -13.916659 -13.036941 51.026386
v -9.937119 6.192808 -0.036048
v -9.937119 -6.405456 50.361615
v -13.916659 13.488999 51.026386
v -13.916659 -13.036941 -0.036048
f 31 34 38 
f 29 28 30 
f 28 29 31 
f 29 30 32 
f 31 29 33 
f 29 32 33 
f 30 28 34 
f 32 30 34 
f 27 31 35 
f 33 27 35 
f 31 33 35 
f 31 27 36 
f 27 34 36 
f 34 31 36 
f 27 33 37 
f 33 32 37 
f 34 27 37 
f 32 34 37 
f 28 31 38 
f 34 28 38 
